{
	"asset":{
		"generator":"Khronos glTF Blender I/O v3.5.30",
		"version":"2.0"
	},
	"scene":0,
	"scenes":[
		{
			"name":"Scene",
			"nodes":[
				0,
				1
			]
		}
	],
	"nodes":[
		{
			"mesh":0,
			"name":"Suzanne",
			"scale":[
				3.0240001678466797,
				3.0240001678466797,
				3.0240001678466797
			]
		},
		{
			"mesh":1,
			"name":"Plane",
			"scale":[
				17.046932220458984,
				17.046932220458984,
				17.046932220458984
			],
			"translation":[
				5.832847595214844,
				-3.009134292602539,
				-12.649369239807129
			]
		}
	],
	"materials":[
		{
			"doubleSided":true,
			"name":"Material.001",
			"pbrMetallicRoughness":{
				"baseColorFactor":[
					0.130719393491745,
					0.4725032448768616,
					0.8000000715255737,
					1
				],
				"metallicFactor":0,
				"roughnessFactor":0.4000000059604645
			}
		},
		{
			"doubleSided":true,
			"name":"Material.002",
			"pbrMetallicRoughness":{
				"baseColorTexture":{
					"index":0
				},
				"metallicFactor":0,
				"roughnessFactor":0.5
			}
		}
	],
	"meshes":[
		{
			"name":"Suzanne",
			"primitives":[
				{
					"attributes":{
						"POSITION":0,
						"TEXCOORD_0":1,
						"NORMAL":2
					},
					"indices":3,
					"material":0
				}
			]
		},
		{
			"name":"Plane.001",
			"primitives":[
				{
					"attributes":{
						"POSITION":4,
						"TEXCOORD_0":5,
						"NORMAL":6
					},
					"indices":7,
					"material":1
				}
			]
		}
	],
	"textures":[
		{
			"sampler":0,
			"source":0
		}
	],
	"images":[
		{
			"mimeType":"image/png",
			"name":"checkerboard",
			"uri":"checkerboard.png"
		}
	],
	"accessors":[
		{
			"bufferView":0,
			"componentType":5126,
			"count":556,
			"max":[
				1.3671875,
				0.984375,
				0.8515625
			],
			"min":[
				-1.3671875,
				-0.984375,
				-0.8515625
			],
			"type":"VEC3"
		},
		{
			"bufferView":1,
			"componentType":5126,
			"count":556,
			"type":"VEC2"
		},
		{
			"bufferView":2,
			"componentType":5126,
			"count":556,
			"type":"VEC3"
		},
		{
			"bufferView":3,
			"componentType":5123,
			"count":2904,
			"type":"SCALAR"
		},
		{
			"bufferView":4,
			"componentType":5126,
			"count":4,
			"max":[
				1,
				0,
				1
			],
			"min":[
				-1,
				0,
				-1
			],
			"type":"VEC3"
		},
		{
			"bufferView":5,
			"componentType":5126,
			"count":4,
			"type":"VEC2"
		},
		{
			"bufferView":6,
			"componentType":5126,
			"count":4,
			"type":"VEC3"
		},
		{
			"bufferView":7,
			"componentType":5123,
			"count":6,
			"type":"SCALAR"
		}
	],
	"bufferViews":[
		{
			"buffer":0,
			"byteLength":6672,
			"byteOffset":0,
			"target":34962
		},
		{
			"buffer":0,
			"byteLength":4448,
			"byteOffset":6672,
			"target":34962
		},
		{
			"buffer":0,
			"byteLength":6672,
			"byteOffset":11120,
			"target":34962
		},
		{
			"buffer":0,
			"byteLength":5808,
			"byteOffset":17792,
			"target":34963
		},
		{
			"buffer":0,
			"byteLength":48,
			"byteOffset":23600,
			"target":34962
		},
		{
			"buffer":0,
			"byteLength":32,
			"byteOffset":23648,
			"target":34962
		},
		{
			"buffer":0,
			"byteLength":48,
			"byteOffset":23680,
			"target":34962
		},
		{
			"buffer":0,
			"byteLength":12,
			"byteOffset":23728,
			"target":34963
		}
	],
	"samplers":[
		{
			"magFilter":9729,
			"minFilter":9987
		}
	],
	"buffers":[
		{
			"byteLength":23740,
			"uri":"monkey.bin"
		}
	]
}
